<mxfile host="app.diagrams.net" agent="Mozilla/5.0 (Windows NT 10.0; Win64; x64) AppleWebKit/537.36 (KHTML, like Gecko) Chrome/131.0.0.0 Safari/537.36" version="26.0.6">
  <diagram name="Page-1" id="0FqAyG7qyWvGr8D5NbYA">
    <mxGraphModel dx="2382" dy="816" grid="1" gridSize="10" guides="1" tooltips="1" connect="1" arrows="1" fold="1" page="1" pageScale="1" pageWidth="850" pageHeight="1100" math="0" shadow="0">
      <root>
        <mxCell id="0" />
        <mxCell id="1" parent="0" />
        <mxCell id="s3SAf-UdSn6TOK4YolAB-1" value="" style="shape=process;whiteSpace=wrap;html=1;backgroundOutline=1;" vertex="1" parent="1">
          <mxGeometry x="70" y="70" width="730" height="240" as="geometry" />
        </mxCell>
        <mxCell id="s3SAf-UdSn6TOK4YolAB-2" value="&lt;h1 style=&quot;text-align: center; margin-top: 0px;&quot;&gt;VIDEOGAMES! MODDED GAMEBOYS! 3D PRINTED ACCESSORIES!&lt;/h1&gt;&lt;h1 style=&quot;text-align: center; margin-top: 0px;&quot;&gt;&amp;nbsp;PICK, CHOOSE, SELECT AND REFUSE!&lt;/h1&gt;&lt;div&gt;&lt;br&gt;&lt;/div&gt;&lt;p&gt;Lorem ipsum dolor sit amet, consectetur adipisicing elit, sed do eiusmod tempor incididunt ut labore et dolore magna aliqua.&lt;/p&gt;" style="text;html=1;whiteSpace=wrap;overflow=hidden;rounded=0;" vertex="1" parent="1">
          <mxGeometry x="50" y="320" width="790" height="120" as="geometry" />
        </mxCell>
      </root>
    </mxGraphModel>
  </diagram>
</mxfile>
